<?xml version="1.0" encoding="utf-8"?>
<svg width="472" height="158" viewBox="0 0 472 158" fill="none" xmlns="http://www.w3.org/2000/svg" xmlns:bx="https://boxy-svg.com"><defs><bx:export><bx:file format="svg"/></bx:export><bx:export><bx:file format="svg" excluded="true"/></bx:export></defs><rect x="27.301" y="-0.901" width="32.625" height="77.596" rx="6.263" fill="#7592FF" stroke="#7592FF" style="stroke-width: 1;"/><rect x="103.133" y="1.745" width="32.625" height="154.31" rx="6.263" fill="#7592FF" stroke="#7592FF" style="stroke-width: 1;"/><rect x="16.794" y="91.344" width="32.625" height="77.596" rx="6.263" transform="matrix(0, -1, 1, 0, -47.289154, 106.714424)" fill="#7592FF" stroke="#7592FF" style="stroke-width: 1;"/><rect x="180.03" y="13.744" width="166.462" height="130.311" rx="28" stroke="#7592FF" stroke-width="24" style="stroke-width: 24;"/><rect x="218.915" y="96.807" width="22.145" height="20.714" rx="2.634" fill="#7592FF" stroke="#7592FF" stroke-width="0.7527" style="stroke-width: 0.753;"/><rect x="230.364" y="40.278" width="22.145" height="20.714" rx="2.634" fill="#7592FF" stroke="#7592FF" stroke-width="0.7527" style="stroke-width: 0.753;"/><rect x="234.657" y="81.424" width="57.565" height="20.714" rx="2.634" fill="#7592FF" stroke="#7592FF" stroke-width="0.7527" style="stroke-width: 0.753;"/><rect x="274.013" y="40.278" width="22.145" height="20.714" rx="2.634" fill="#7592FF" stroke="#7592FF" stroke-width="0.7527" style="stroke-width: 0.753;"/><rect x="285.462" y="96.807" width="22.145" height="20.714" rx="2.634" fill="#7592FF" stroke="#7592FF" stroke-width="0.7527" style="stroke-width: 0.753;"/><rect x="-400.04" y="-38.304" width="26.688" height="25" rx="2" fill="#7592FF" stroke="#7592FF" stroke-width="1" style="stroke-width: 1; transform-origin: -386.699px -25.804px;" transform="matrix(-1, 0, 0, -1, 773.398438, 51.608349)"/><rect x="398.822" y="2.253" width="32.625" height="154.31" rx="6.263" fill="#7592FF" stroke="#7592FF" style="stroke-width: 1;"/></svg>