<?xml version="1.0" encoding="utf-8"?>
<svg width="472" height="158" viewBox="0 0 472 158" fill="none" xmlns="http://www.w3.org/2000/svg" xmlns:bx="https://boxy-svg.com"><defs><bx:export><bx:file format="svg"/></bx:export></defs><rect x="234.477" y="40.532" width="22.145" height="20.714" rx="2.634" fill="#465FFF" stroke="#465FFF" stroke-width="0.752667" style="stroke-width: 0.753;"/><rect x="278.126" y="40.532" width="22.145" height="20.714" rx="2.634" fill="#465FFF" stroke="#465FFF" stroke-width="0.752667" style="stroke-width: 0.753;"/><rect x="289.575" y="97.061" width="22.145" height="20.714" rx="2.634" fill="#465FFF" stroke="#465FFF" stroke-width="0.752667" style="stroke-width: 0.753;"/><rect x="223.028" y="97.061" width="22.145" height="20.714" rx="2.634" fill="#465FFF" stroke="#465FFF" stroke-width="0.752667" style="stroke-width: 0.753;"/><rect x="238.77" y="81.678" width="57.565" height="20.714" rx="2.634" fill="#465FFF" stroke="#465FFF" stroke-width="0.752667" style="stroke-width: 0.753;"/><rect x="184.143" y="13.998" width="166.462" height="130.311" rx="28" stroke="#465FFF" stroke-width="24" style="stroke-width: 24;"/><rect x="31.414" y="-0.647" width="32.625" height="77.596" rx="6.263" fill="#465FFF" style="stroke-width: 1;"/><rect x="31.414" y="-0.647" width="32.625" height="77.596" rx="6.263" stroke="#465FFF" style="stroke-width: 1;"/><rect x="107.246" y="1.998" width="32.625" height="154.31" rx="6.263" fill="#465FFF" style="stroke-width: 1;"/><rect x="107.246" y="1.998" width="32.625" height="154.31" rx="6.263" stroke="#465FFF" style="stroke-width: 1;"/><rect x="16.794" y="91.344" width="32.625" height="77.596" rx="6.263" transform="matrix(0, -1, 1, 0, -43.176422, 106.969002)" fill="#465FFF" style="stroke-width: 1;"/><rect x="16.794" y="91.344" width="32.625" height="77.596" rx="6.263" transform="matrix(0, -1, 1, 0, -43.176422, 106.969002)" stroke="#465FFF" style="stroke-width: 1;"/><rect x="409.708" y="1.998" width="32.625" height="154.31" rx="6.263" fill="#465FFF" style="stroke-width: 1;"/><rect x="409.708" y="3.998" width="32.625" height="154.31" rx="6.263" stroke="#465FFF" style="stroke-width: 1;"/><rect x="380.255" y="40.726" width="32.625" height="34.596" rx="6.263" transform="matrix(0, -1, 1, 0, 337.903168, 414.430115)" fill="#465FFF" style="stroke-width: 1;"/></svg>